<?xml version="1.0" standalone="no"?>
<!DOCTYPE svg PUBLIC "-//W3C//DTD SVG 20010904//EN"
 "http://www.w3.org/TR/2001/REC-SVG-20010904/DTD/svg10.dtd">
<svg version="1.0" xmlns="http://www.w3.org/2000/svg"
 width="640.000000pt" height="640.000000pt" viewBox="0 0 640.000000 640.000000"
 preserveAspectRatio="xMidYMid meet">
<metadata>
Created by potrace 1.14, written by Peter Selinger 2001-2017
</metadata>
<g transform="translate(0.000000,640.000000) scale(0.100000,-0.100000)"
fill="#000000" stroke="none">
<path d="M1278 5444 c-2 -1 -23 -5 -48 -9 -64 -9 -138 -50 -187 -104 -61 -66
-86 -151 -84 -286 0 -5 0 -30 0 -55 0 -25 1 -53 0 -62 0 -10 1 -33 1 -50 0
-18 -1 -61 -2 -96 -2 -34 -1 -62 2 -62 3 0 4 -28 3 -62 -7 -162 -8 -268 -3
-268 3 0 3 -29 0 -65 -3 -36 -3 -65 0 -65 4 0 3 -23 0 -51 -4 -29 -4 -68 0
-88 3 -20 3 -50 -1 -68 -3 -17 -3 -37 1 -43 4 -6 4 -29 0 -50 -4 -21 -4 -44 0
-50 4 -6 4 -26 1 -43 -4 -18 -4 -51 -1 -74 4 -24 4 -43 1 -43 -3 0 -6 -72 -6
-160 0 -88 2 -160 5 -160 3 0 3 -29 0 -65 -3 -36 -2 -65 3 -65 4 0 5 -4 2 -10
-3 -5 -6 -56 -5 -112 0 -57 1 -111 1 -120 0 -10 0 -34 0 -53 0 -19 0 -43 -1
-52 0 -10 0 -31 0 -48 -4 -333 155 -640 425 -820 78 -51 164 -95 218 -110 4
-2 8 -3 10 -5 2 -2 12 -5 91 -24 93 -23 283 -35 308 -20 4 3 8 1 8 -3 0 -5 29
-6 65 -3 36 3 65 3 65 0 0 -6 146 -3 173 4 9 2 17 1 17 -3 0 -3 29 -4 65 -1
36 3 65 3 65 0 0 -5 106 -4 268 3 34 1 62 0 62 -3 0 -3 28 -4 62 -2 97 4 159
3 168 -3 5 -3 11 -1 14 3 3 5 25 6 48 3 24 -4 57 -4 73 -1 17 3 50 3 75 0 25
-3 57 -3 70 0 14 4 36 4 50 0 14 -4 36 -4 50 0 14 3 43 3 65 0 22 -3 59 -3 83
0 24 4 45 3 48 -2 3 -5 9 -6 13 -4 8 5 41 7 171 7 108 0 181 5 222 15 18 4 40
8 48 10 74 10 235 82 329 147 220 151 391 442 404 690 1 15 5 27 9 27 3 0 3
13 -2 30 -5 16 -5 32 -1 34 4 3 41 5 82 5 41 1 90 1 109 2 19 1 41 1 48 0 6
-1 18 -2 25 -2 6 -1 62 1 122 5 103 5 122 7 185 21 14 4 34 7 45 9 11 1 49 12
85 24 36 12 68 22 72 22 15 0 243 120 271 143 163 128 213 176 296 285 71 93
111 161 159 272 22 51 61 167 67 201 3 13 11 57 19 97 14 74 15 330 1 402 -3
19 -8 44 -10 55 -5 32 -35 135 -56 192 -24 67 -119 253 -139 273 -3 3 -18 23
-34 45 -80 109 -201 223 -316 299 -81 53 -235 132 -274 141 -6 1 -18 5 -26 8
-116 44 -358 75 -520 67 -19 -1 -41 -2 -47 -1 -20 2 -44 2 -96 1 -26 -1 -50 1
-55 3 -4 3 -31 1 -59 -2 -29 -4 -53 -5 -53 -1 0 3 -29 3 -65 0 -36 -3 -65 -3
-65 0 0 5 -106 4 -268 -3 -34 -1 -62 0 -62 3 0 3 -28 4 -62 2 -35 -1 -78 -2
-95 -2 -18 0 -41 1 -50 1 -19 -1 -101 0 -118 1 -5 0 -52 -1 -103 -2 -51 -1
-95 0 -98 3 -3 2 -20 1 -38 -3 -19 -4 -39 -4 -46 0 -6 4 -29 4 -51 0 -22 -4
-41 -4 -44 0 -2 4 -25 4 -50 0 -25 -4 -45 -4 -45 -1 0 3 -28 5 -62 3 -35 -1
-85 -2 -113 -1 -59 1 -55 1 -128 -1 -32 -1 -60 0 -63 3 -3 2 -20 1 -38 -3 -19
-4 -39 -4 -46 0 -6 4 -29 4 -51 0 -22 -4 -41 -4 -44 0 -2 4 -25 4 -50 0 -25
-4 -45 -4 -45 -1 0 5 -52 5 -140 1 -14 -1 -68 -1 -120 -1 -52 1 -123 0 -158
-1 -34 -2 -62 -1 -62 2 0 3 -28 4 -62 2 -35 -1 -79 -2 -98 -2 -19 1 -46 0 -60
0 -14 -1 -32 -2 -40 -1 -93 3 -222 1 -230 -4 -6 -3 -10 -2 -10 2 0 5 -29 6
-65 3 -36 -3 -65 -3 -65 0 0 3 -72 5 -160 5 -88 0 -160 -3 -160 -6 0 -3 -20
-3 -45 1 -25 4 -46 6 -47 4z m3717 -644 c25 4 47 5 49 3 2 -2 43 -6 92 -8 84
-5 149 -11 149 -15 0 -1 8 -3 17 -5 10 -2 56 -22 103 -45 120 -57 227 -164
284 -282 48 -99 62 -155 67 -267 4 -95 -13 -190 -47 -266 -12 -27 -23 -52 -24
-55 -10 -48 -165 -211 -231 -245 -21 -11 -41 -23 -44 -26 -15 -21 -171 -60
-254 -65 -50 -3 -97 -7 -103 -9 -7 -3 -13 -1 -13 4 0 4 -22 5 -50 1 -27 -4
-50 -4 -50 -1 0 3 -31 5 -69 4 l-69 -2 -4 44 c-2 25 1 45 5 45 5 0 6 4 3 8 -6
9 -7 45 -7 227 0 72 0 135 -1 140 0 6 1 21 2 35 0 14 1 41 0 60 0 19 1 63 2
98 2 34 1 62 -2 62 -3 0 -4 28 -2 62 1 35 2 119 1 188 0 134 0 133 2 183 0 17
0 37 -1 42 -1 6 -2 27 -1 47 l1 38 61 -1 c33 -1 63 2 66 5 4 4 11 2 15 -2 5
-5 29 -6 53 -2z"/>
<path d="M284 1600 c-3 -2 -17 -6 -32 -8 -15 -1 -49 -15 -77 -29 -191 -99
-232 -353 -82 -506 58 -59 125 -88 212 -94 118 -7 245 -8 245 -2 0 3 19 3 43
-1 23 -3 56 -3 74 1 17 3 37 3 43 -1 6 -4 29 -4 50 0 21 4 44 4 50 0 6 -4 26
-4 43 -1 18 4 48 4 68 1 20 -4 59 -4 88 0 28 3 51 4 51 0 0 -3 29 -3 65 0 36
3 65 3 65 0 0 -5 106 -4 268 3 34 1 62 0 62 -3 0 -3 28 -4 62 -2 35 1 79 2 98
2 19 -1 46 0 60 0 14 1 32 2 40 1 93 -3 222 -1 230 4 6 3 10 2 10 -2 0 -5 29
-6 65 -3 36 3 65 3 65 0 0 -3 72 -5 160 -5 88 0 160 3 160 6 0 3 19 3 43 -1
23 -3 56 -3 74 1 17 3 37 3 43 -1 6 -4 29 -4 50 0 21 4 44 4 50 0 6 -4 26 -4
43 -1 18 4 48 4 68 1 20 -4 59 -4 88 0 28 3 51 4 51 0 0 -3 29 -3 65 0 36 3
65 3 65 0 0 -5 106 -4 268 3 34 1 62 0 62 -3 0 -3 28 -4 62 -2 35 1 79 2 98 2
19 -1 46 0 60 0 14 1 32 2 40 1 93 -3 222 -1 230 4 6 3 10 2 10 -2 0 -5 29 -6
65 -3 36 3 65 3 65 0 0 -3 72 -5 160 -5 88 0 160 3 160 6 0 3 19 3 43 -1 23
-3 56 -3 74 1 17 3 37 3 43 -1 6 -4 29 -4 50 0 21 4 44 4 50 0 6 -4 26 -4 43
-1 18 4 48 4 68 1 20 -4 59 -4 88 0 28 3 51 4 51 0 0 -3 29 -3 65 0 36 3 65 3
65 0 0 -6 146 -3 173 4 9 2 17 1 17 -3 0 -3 29 -4 65 -1 36 3 65 2 65 -1 0 -4
8 -5 18 -3 9 2 46 6 82 8 36 3 72 7 80 9 42 12 80 30 80 38 0 5 6 9 13 9 19 0
83 76 108 129 24 51 33 164 17 214 -21 65 -40 97 -81 140 -58 59 -125 88 -212
94 -118 7 -245 8 -245 2 0 -3 -19 -3 -42 1 -24 3 -57 3 -75 -1 -17 -3 -37 -3
-43 1 -6 4 -29 4 -50 0 -21 -4 -44 -4 -50 0 -6 4 -26 4 -43 1 -18 -4 -48 -4
-68 -1 -20 4 -59 4 -88 0 -28 -3 -51 -4 -51 0 0 3 -29 3 -65 0 -36 -3 -65 -3
-65 0 0 5 -106 4 -268 -3 -34 -1 -62 0 -62 3 0 3 -28 4 -62 2 -35 -1 -79 -2
-98 -2 -19 1 -46 0 -60 0 -14 -1 -31 -2 -37 -1 -7 0 -60 0 -118 0 -58 0 -113
0 -122 1 -10 0 -40 -1 -68 -1 -27 -1 -54 -1 -60 -1 -85 5 -325 5 -325 1 0 -3
-19 -3 -42 1 -24 3 -57 3 -75 -1 -17 -3 -37 -3 -43 1 -6 4 -29 4 -50 0 -21 -4
-44 -4 -50 0 -6 4 -26 4 -43 1 -18 -4 -48 -4 -68 -1 -20 4 -59 4 -88 0 -28 -3
-51 -4 -51 0 0 3 -29 3 -65 0 -36 -3 -65 -3 -65 0 0 5 -106 4 -268 -3 -34 -1
-62 0 -62 3 0 3 -28 4 -62 2 -35 -1 -79 -2 -98 -2 -19 1 -46 0 -60 0 -14 -1
-32 -2 -40 -1 -93 3 -222 1 -230 -4 -6 -3 -10 -2 -10 2 0 5 -29 6 -65 3 -36
-3 -65 -3 -65 0 0 3 -72 5 -160 5 -88 0 -160 -3 -160 -6 0 -3 -19 -3 -42 1
-24 3 -57 3 -75 -1 -17 -3 -37 -3 -43 1 -6 4 -29 4 -50 0 -21 -4 -44 -4 -50 0
-6 4 -26 4 -43 1 -18 -4 -48 -4 -68 -1 -20 4 -59 4 -88 0 -28 -3 -51 -4 -51 0
0 3 -29 3 -65 0 -36 -3 -65 -3 -65 0 0 5 -106 4 -268 -3 -34 -1 -62 0 -62 3 0
6 -110 7 -116 0z"/>
</g>
</svg>
